<svg width="123" height="40" viewBox="0 0 123 40" fill="none" xmlns="http://www.w3.org/2000/svg">
<g clip-path="url(#clip0_0_638)">
<path d="M2.37012 6.94305V6.94946C2.37332 6.94626 2.37332 6.94305 2.37012 6.94305Z" fill="url(#paint0_linear_0_638)"/>
<path d="M0.748176 12.2221L6.29277 2.6195C6.67235 1.97728 7.21134 1.44396 7.85752 1.07119C8.50371 0.698407 9.2352 0.498802 9.98117 0.491699H26.0082C26.0082 4.6663 22.6238 7.2183 18.4524 7.2183H11.4124L7.41617 14.3531L11.0562 21.4879H12.899C17.0736 21.4879 20.6944 24.0431 20.6944 28.2145H9.98438C9.23751 28.2075 8.50512 28.0077 7.85825 27.6343C7.21138 27.2609 6.67198 26.7267 6.29237 26.0835L0.750976 16.4907C0.382113 15.8399 0.187992 15.1048 0.187501 14.3568C0.18701 13.6087 0.380168 12.8733 0.748176 12.2221Z" fill="url(#paint1_linear_0_638)"/>
<path d="M7.05615 12.7079V12.7143C7.05935 12.7111 7.05615 12.7111 7.05615 12.7079Z" fill="url(#paint2_linear_0_638)"/>
<path d="M32.3307 28.007L26.7861 37.6096C26.4065 38.2519 25.8675 38.7853 25.2212 39.1581C24.575 39.5308 23.8434 39.7304 23.0973 39.7374H7.06934C7.06934 35.5628 10.4537 33.0108 14.6251 33.0108H21.6651L25.6615 25.876L22.0253 18.7413H20.4189C16.2443 18.7413 12.3871 16.186 12.3871 12.0146H23.0973C23.8442 12.0216 24.5766 12.2215 25.2235 12.5948C25.8703 12.9682 26.4097 13.5024 26.7893 14.1456L32.3273 23.7416C32.6962 24.3918 32.8904 25.1263 32.891 25.8738C32.8916 26.6213 32.6985 27.3562 32.3305 28.0069L32.3307 28.007Z" fill="url(#paint3_linear_0_638)"/>
<path d="M26.2617 27.8775V27.8711C26.2585 27.8743 26.2585 27.8775 26.2617 27.8775Z" fill="url(#paint4_linear_0_638)"/>
<path d="M27.6059 21.7111L25.6659 25.8759L22.0259 18.7411H20.4195C16.2449 18.7411 12.3877 16.1859 12.3877 12.0145H23.0979C23.8448 12.0214 24.5772 12.2213 25.224 12.5946C25.8709 12.968 26.4103 13.5022 26.7899 14.1455C28.2893 16.7431 29.1151 19.1171 27.6059 21.7111Z" fill="url(#paint5_linear_0_638)"/>
<path d="M44.8748 27.952C43.8394 27.9722 42.8102 27.7873 41.8466 27.4081C41.005 27.0688 40.2559 26.535 39.6605 25.8503C39.0591 25.1379 38.6076 24.3115 38.3328 23.4206C37.7183 21.3648 37.7239 19.1733 38.3489 17.1206C38.6351 16.2199 39.0962 15.3845 39.706 14.6624C40.2923 13.9791 41.0251 13.4366 41.85 13.0754C42.7438 12.6928 43.7084 12.503 44.6806 12.5185C45.4333 12.5144 46.1848 12.5814 46.925 12.7185C47.487 12.8057 48.0321 12.9794 48.541 13.2335L48.0552 14.8335C47.6455 14.6324 47.2141 14.4791 46.7694 14.3768C46.1396 14.2496 45.4977 14.1921 44.8553 14.2052C43.2165 14.2052 41.974 14.7342 41.1278 15.7922C40.2815 16.8502 39.8572 18.3508 39.855 20.2939C39.8469 21.108 39.9427 21.9199 40.14 22.7098C40.3071 23.3989 40.6244 24.0426 41.0694 24.5946C41.5164 25.1301 42.0849 25.5509 42.7276 25.8221C43.5121 26.1377 44.3532 26.2887 45.1986 26.2659C45.8802 26.2825 46.5601 26.1906 47.213 25.9939C47.6205 25.8692 48.0169 25.7111 48.3984 25.5211L48.8 27.1211C48.2867 27.3737 47.7438 27.5608 47.184 27.678C46.428 27.8619 45.6527 27.9539 44.8748 27.952Z" fill="#6E7072"/>
<path d="M54.9335 26.3233C55.9979 26.3233 56.8789 26.1474 57.5763 25.7955C58.2738 25.4436 58.6214 24.8488 58.6191 24.0111C58.628 23.6589 58.5652 23.3085 58.4345 22.9813C58.2983 22.6762 58.0865 22.4109 57.8191 22.2105C57.4704 21.9464 57.0909 21.7257 56.6889 21.5531C56.2193 21.3425 55.6461 21.0965 54.9595 20.8115C54.4057 20.5815 53.8843 20.3483 53.3887 20.1115C52.9184 19.8896 52.4769 19.6111 52.0739 19.2823C51.6948 18.9726 51.3838 18.5878 51.1605 18.1521C50.9177 17.6546 50.7998 17.1054 50.8171 16.5521C50.8007 15.9942 50.9149 15.4401 51.1505 14.934C51.3861 14.428 51.7366 13.9839 52.1741 13.6373C53.0788 12.8968 54.3213 12.5254 55.9017 12.5233C56.7424 12.5049 57.5822 12.5908 58.4017 12.7791C58.8766 12.8892 59.3406 13.042 59.7879 13.2357L59.3605 14.8939C58.9831 14.7221 58.5972 14.5697 58.2043 14.4373C57.6603 14.2463 56.8667 14.1523 55.8175 14.1523C55.4187 14.1497 55.0209 14.1932 54.6321 14.2819C54.2831 14.3578 53.95 14.4936 53.6475 14.6835C53.3698 14.8577 53.1351 15.0924 52.9609 15.3701C52.7814 15.6782 52.6927 16.0308 52.7051 16.3871C52.6938 16.7443 52.7729 17.0985 52.9351 17.4169C53.098 17.7172 53.3273 17.9764 53.6055 18.1747C53.943 18.419 54.3069 18.6244 54.6905 18.7869C55.1179 18.9747 55.6105 19.1853 56.1609 19.4119C56.7113 19.6385 57.2781 19.8719 57.8029 20.1083C58.3015 20.3293 58.7679 20.6169 59.1891 20.9633C59.5884 21.2965 59.9185 21.7047 60.1607 22.1649C60.426 22.7121 60.5538 23.3158 60.5331 23.9235C60.5331 25.2578 60.0331 26.2672 59.0331 26.9517C58.0331 27.6362 56.6664 27.9795 54.9331 27.9815C53.6376 27.9815 52.6466 27.8724 51.9601 27.6543C51.4928 27.5158 51.0342 27.3493 50.5869 27.1555L51.0727 25.4681C51.1923 25.5383 51.3168 25.6 51.4451 25.6527C51.697 25.7609 51.9543 25.856 52.2159 25.9377C52.5947 26.0544 52.981 26.1453 53.3721 26.2097C53.8886 26.2899 54.4108 26.3279 54.9335 26.3233Z" fill="#6E7072"/>
<path d="M64.1338 13.3783C64.6866 13.2249 65.4056 13.0533 66.2908 12.8633C67.4256 12.6512 68.5792 12.5557 69.7334 12.5783C71.5989 12.5783 72.9516 13.1213 73.7915 14.2073C73.8853 14.1329 74.0732 14.0033 74.3484 13.8219C75.1202 13.3328 75.9703 12.9801 76.8616 12.7791C77.4758 12.6401 78.104 12.573 78.7336 12.5791C79.8574 12.5791 80.7674 12.7475 81.4638 13.0779C82.1254 13.3802 82.6863 13.8661 83.0798 14.4779C83.4829 15.1359 83.7453 15.8704 83.8506 16.6349C83.9889 17.5426 84.0558 18.4598 84.0506 19.3781V27.6367H82.1917V19.9783C82.1984 19.1333 82.1552 18.2887 82.0623 17.4489C82.0047 16.831 81.8299 16.2297 81.5472 15.6773C81.2992 15.2191 80.9142 14.8499 80.446 14.6215C79.8613 14.3638 79.2256 14.242 78.587 14.2653C78.0634 14.2597 77.541 14.3129 77.0292 14.4239C76.6127 14.5121 76.2058 14.6411 75.8146 14.8093C75.5202 14.9345 75.2382 15.0873 74.9727 15.2659C74.7557 15.4181 74.5971 15.5315 74.4999 15.6091C74.6831 16.1521 74.8122 16.7118 74.8853 17.2803C74.9725 17.9287 75.0158 18.5822 75.0148 19.2365V27.6383H73.1558V19.9783C73.1625 19.1333 73.1193 18.2887 73.0262 17.4489C72.9701 16.8291 72.7907 16.2267 72.4984 15.6773C72.2392 15.2174 71.8445 14.8487 71.368 14.6215C70.7588 14.3618 70.0996 14.2402 69.4378 14.2653C68.6786 14.2568 67.9197 14.3045 67.1674 14.4079C66.7647 14.4531 66.3676 14.5388 65.982 14.6637V27.6383H64.124V13.3783H64.1338Z" fill="#6E7072"/>
<path d="M93.2787 12.5199C94.1214 12.4974 94.9605 12.6382 95.7497 12.9345C96.3804 13.1792 96.9434 13.5711 97.3917 14.0777C97.8178 14.5812 98.1295 15.1713 98.305 15.8071C98.501 16.5146 98.597 17.2461 98.59 17.9803V27.2947C98.3173 27.3717 98.0405 27.4333 97.761 27.4793C97.3982 27.5473 96.9809 27.6193 96.5043 27.6931C96.0277 27.7669 95.5004 27.8331 94.9174 27.8777C94.3344 27.9223 93.7417 27.9489 93.1327 27.9489C92.4059 27.9555 91.6811 27.8696 90.976 27.6931C90.3561 27.5399 89.7734 27.2634 89.2627 26.8801C88.7724 26.5028 88.3803 26.0129 88.1196 25.4519C87.8267 24.7817 87.6851 24.0552 87.705 23.3241C87.6848 22.6114 87.8417 21.9047 88.1615 21.2675C88.4661 20.6964 88.9079 20.21 89.4473 19.8523C90.0476 19.4592 90.7169 19.1834 91.4198 19.0393C92.2371 18.8641 93.0711 18.7783 93.907 18.7835C94.1726 18.7835 94.4543 18.7965 94.7489 18.8257C95.0435 18.8549 95.329 18.8937 95.6072 18.9391C95.8854 18.9845 96.1219 19.0363 96.3229 19.0815C96.4655 19.1094 96.6045 19.1528 96.7375 19.2111V18.2979C96.7379 17.7957 96.7 17.2943 96.6241 16.7979C96.5532 16.3292 96.3831 15.8809 96.1253 15.4831C95.853 15.0789 95.4787 14.7538 95.0404 14.5407C94.462 14.2808 93.8311 14.1589 93.1975 14.1845C92.1137 14.1845 91.304 14.2612 90.7685 14.4145C90.2341 14.5667 89.8455 14.6897 89.5961 14.7869L89.3404 13.1579C89.8225 12.9588 90.3257 12.8153 90.8404 12.7303C91.6445 12.5822 92.4611 12.5117 93.2787 12.5199ZM93.4503 26.2939C94.1735 26.2939 94.8072 26.2702 95.3513 26.2227C95.8162 26.1847 96.2789 26.1231 96.7375 26.0381V20.8367C96.4133 20.7083 96.0787 20.6076 95.7375 20.5355C95.1166 20.4157 94.4848 20.3625 93.8526 20.3767C93.3748 20.3775 92.8976 20.4109 92.4243 20.4767C91.9455 20.5397 91.4811 20.6843 91.0511 20.9043C90.6404 21.1171 90.2871 21.4258 90.0211 21.8043C89.7349 22.2563 89.5947 22.7855 89.6196 23.3199C89.6044 23.801 89.6974 24.2794 89.8915 24.7199C90.0609 25.0885 90.3274 25.4042 90.6623 25.6331C91.0266 25.8759 91.4348 26.0453 91.8639 26.1319C92.3854 26.2432 92.9174 26.2975 93.4506 26.2939H93.4503Z" fill="#6E7072"/>
<path d="M108.368 12.5784C108.947 12.5765 109.526 12.6241 110.097 12.7208C110.483 12.7759 110.862 12.8714 111.228 13.0058L110.855 14.6058C110.556 14.4892 110.244 14.4076 109.926 14.3628C109.316 14.2668 108.7 14.2234 108.083 14.2332C107.435 14.2212 106.788 14.2787 106.153 14.4048C105.825 14.4701 105.504 14.5655 105.194 14.6898V27.6346H103.338V13.5464C103.979 13.2822 104.638 13.0667 105.311 12.902C106.313 12.6692 107.339 12.5605 108.368 12.5784Z" fill="#6E7072"/>
<path d="M115.768 12.8633H121.656V14.4341H115.768V22.2909C115.751 22.9785 115.823 23.6653 115.982 24.3345C116.084 24.7835 116.296 25.2005 116.597 25.5489C116.857 25.8313 117.195 26.0297 117.569 26.1189C117.98 26.2168 118.402 26.2646 118.825 26.2613C119.465 26.2832 120.103 26.1911 120.71 25.9893C121.093 25.8508 121.466 25.6841 121.824 25.4905L122.281 27.0321C121.838 27.2792 121.368 27.4758 120.881 27.6183C120.179 27.8432 119.445 27.9536 118.708 27.9453C117.926 27.9667 117.147 27.846 116.408 27.5891C115.82 27.3749 115.305 26.9987 114.921 26.5041C114.527 25.9659 114.258 25.3462 114.134 24.6905C113.97 23.8435 113.893 22.9819 113.905 22.1191V8.5191L115.763 8.1759V12.8623L115.768 12.8633Z" fill="#6E7072"/>
<path d="M5.59302 17.8672L7.41302 14.3531L11.053 21.488H12.8958C17.0704 21.488 20.6912 24.0432 20.6912 28.2146H9.98462C9.23776 28.2076 8.50536 28.0077 7.85849 27.6344C7.21162 27.261 6.67222 26.7268 6.29261 26.0836C4.78981 23.4862 4.08382 20.4612 5.59302 17.8672Z" fill="url(#paint6_linear_0_638)"/>
</g>
<defs>
<linearGradient id="paint0_linear_0_638" x1="118.008" y1="104.876" x2="118.016" y2="104.876" gradientUnits="userSpaceOnUse">
<stop offset="0.14" stop-color="#FF9078"/>
<stop offset="0.35" stop-color="#FFAA78"/>
<stop offset="0.59" stop-color="#FFC278"/>
<stop offset="0.81" stop-color="#FFD178"/>
<stop offset="1" stop-color="#FFD678"/>
</linearGradient>
<linearGradient id="paint1_linear_0_638" x1="28.4353" y1="14.3531" x2="1.34943" y2="14.3531" gradientUnits="userSpaceOnUse">
<stop stop-color="#159FFF"/>
<stop offset="0.06" stop-color="#159FFF"/>
<stop offset="0.33" stop-color="#15B2FF"/>
<stop offset="0.808" stop-color="#15CFFF"/>
<stop offset="1" stop-color="#15EEFF"/>
</linearGradient>
<linearGradient id="paint2_linear_0_638" x1="112.416" y1="100.227" x2="112.416" y2="100.229" gradientUnits="userSpaceOnUse">
<stop offset="0.06" stop-color="#159FFF"/>
<stop offset="0.33" stop-color="#15B2FF"/>
<stop offset="0.596" stop-color="#15CFFF"/>
<stop offset="0.812" stop-color="#15E2FF"/>
<stop offset="1" stop-color="#15EEFF"/>
</linearGradient>
<linearGradient id="paint3_linear_0_638" x1="35.3182" y1="25.876" x2="8.23131" y2="25.876" gradientUnits="userSpaceOnUse">
<stop stop-color="#79FF55"/>
<stop offset="0.06" stop-color="#79FF55"/>
<stop offset="0.635" stop-color="#0AD67F"/>
<stop offset="1" stop-color="#00D383"/>
</linearGradient>
<linearGradient id="paint4_linear_0_638" x1="132.129" y1="-84.0571" x2="132.129" y2="-84.0597" gradientUnits="userSpaceOnUse">
<stop offset="0.06" stop-color="#79FF55"/>
<stop offset="1" stop-color="#00D383"/>
</linearGradient>
<linearGradient id="paint5_linear_0_638" x1="28.0699" y1="18.9452" x2="10.5295" y2="18.9452" gradientUnits="userSpaceOnUse">
<stop stop-color="#00BE86"/>
<stop offset="1" stop-color="#2FF235"/>
</linearGradient>
<linearGradient id="paint6_linear_0_638" x1="5.08859" y1="21.2839" x2="22.5559" y2="21.2839" gradientUnits="userSpaceOnUse">
<stop offset="0.06" stop-color="#159FFF"/>
<stop offset="1" stop-color="#3FECFF"/>
</linearGradient>
<clipPath id="clip0_0_638">
<rect width="122.093" height="39.2458" fill="white" transform="translate(0.1875 0.491699)"/>
</clipPath>
</defs>
</svg>
