<svg width="24" height="24" viewBox="0 0 24 24" fill="none" xmlns="http://www.w3.org/2000/svg">
<path d="M12 6.86667C15.5373 6.86667 18.692 8.85467 20.232 12C18.692 15.1453 15.5373 17.1333 12 17.1333C8.46267 17.1333 5.308 15.1453 3.768 12C5.308 8.85467 8.46267 6.86667 12 6.86667ZM12 5C7.33333 5 3.348 7.90267 1.73333 12C3.348 16.0973 7.33333 19 12 19C16.6667 19 20.652 16.0973 22.2667 12C20.652 7.90267 16.6667 5 12 5ZM12 9.66667C13.288 9.66667 14.3333 10.712 14.3333 12C14.3333 13.288 13.288 14.3333 12 14.3333C10.712 14.3333 9.66667 13.288 9.66667 12C9.66667 10.712 10.712 9.66667 12 9.66667ZM12 7.8C9.68533 7.8 7.8 9.68533 7.8 12C7.8 14.3147 9.68533 16.2 12 16.2C14.3147 16.2 16.2 14.3147 16.2 12C16.2 9.68533 14.3147 7.8 12 7.8Z" fill="#1168EB"/>
</svg>
